HIERARCHY
ROOT root
{
	OFFSET	0	13.1	24.9
	CHANNELS 6  Xposition Yposition Zposition Xrotation Yrotation Zrotation
	JOINT spine_1
	{
		OFFSET	0	9.99999	0
		CHANNELS 3  Xrotation Yrotation Zrotation
		JOINT spine_2
		{
			OFFSET	0	112	-10
			CHANNELS 3  Xrotation Yrotation Zrotation
			JOINT spine_3
			{
				OFFSET	0	206.5	19.3
				CHANNELS 3  Xrotation Yrotation Zrotation
				JOINT spine_4
				{
					OFFSET	0	110.4	14.6
					CHANNELS 3  Xrotation Yrotation Zrotation
					JOINT neck_1
					{
						OFFSET	0	71.8	-50.3
						CHANNELS 3  Xrotation Yrotation Zrotation
						JOINT neck_2
						{
							OFFSET	0	86.2	-25.8
							CHANNELS 3  Xrotation Yrotation Zrotation
							JOINT head_ee
							{
								OFFSET	0	179.8	-8.7
								CHANNELS 3  Xrotation Yrotation Zrotation
								End Site
								{
									OFFSET	1	0	0
								}
							}
						}
					}
					JOINT left_clavicle
					{
						OFFSET	-43.2	22.4	-70.8
						CHANNELS 3  Xrotation Yrotation Zrotation
						JOINT left_shoulder
						{
							OFFSET	-93.9	-5.79999	48.7
							CHANNELS 3  Xrotation Yrotation Zrotation
							JOINT left_elbow
							{
								OFFSET	-291.4	-30.8	15.2
								CHANNELS 3  Xrotation Yrotation Zrotation
								JOINT left_lowarm_twist
								{
									OFFSET	-110.7	-3.89999	13.6
									CHANNELS 3  Xrotation Yrotation Zrotation
									JOINT left_hand
									{
										OFFSET	-110.7	-3.89999	13.6
										CHANNELS 3  Xrotation Yrotation Zrotation
										JOINT left_ee
										{
											OFFSET	-80.8	-5.10001	12.1
											CHANNELS 3  Xrotation Yrotation Zrotation
											End Site
											{
												OFFSET	1	0	0
											}
										}
									}
								}
							}
						}
					}
					JOINT right_clavicle
					{
						OFFSET	43.2	22.4	-70.8
						CHANNELS 3  Xrotation Yrotation Zrotation
						JOINT right_shoulder
						{
							OFFSET	93.9	-5.79999	48.7
							CHANNELS 3  Xrotation Yrotation Zrotation
							JOINT right_elbow
							{
								OFFSET	291.4	-30.8	15.2
								CHANNELS 3  Xrotation Yrotation Zrotation
								JOINT right_lowarm_twist
								{
									OFFSET	110.7	-3.89999	13.6
									CHANNELS 3  Xrotation Yrotation Zrotation
									JOINT right_hand
									{
										OFFSET	110.7	-3.89999	13.6
										CHANNELS 3  Xrotation Yrotation Zrotation
										JOINT right_ee
										{
											OFFSET	80.8	-5.10001	12.1
											CHANNELS 3  Xrotation Yrotation Zrotation
											End Site
											{
												OFFSET	1	0	0
											}
										}
									}
								}
							}
						}
					}
				}
			}
		}
	}
	JOINT left_hip
	{
		OFFSET	-82.8	-127.5	0.300001
		CHANNELS 3  Xrotation Yrotation Zrotation
		JOINT left_knee
		{
			OFFSET	-28.2	-396.7	2.2
			CHANNELS 3  Xrotation Yrotation Zrotation
			JOINT left_ankle
			{
				OFFSET	-11.7	-411.3	35.4
				CHANNELS 3  Xrotation Yrotation Zrotation
				JOINT left_toes
				{
					OFFSET	0	-60	-88.6
					CHANNELS 3  Xrotation Yrotation Zrotation
					JOINT left_foot_ee
					{
						OFFSET	-22.5	-16.5	-42.2
						CHANNELS 3  Xrotation Yrotation Zrotation
						End Site
						{
							OFFSET	1	0	0
						}
					}
				}
			}
		}
	}
	JOINT right_hip
	{
		OFFSET	82.8	-127.5	0.300001
		CHANNELS 3  Xrotation Yrotation Zrotation
		JOINT right_knee
		{
			OFFSET	28.2	-396.7	2.2
			CHANNELS 3  Xrotation Yrotation Zrotation
			JOINT right_ankle
			{
				OFFSET	11.7	-411.3	35.4
				CHANNELS 3  Xrotation Yrotation Zrotation
				JOINT right_toes
				{
					OFFSET	0	-60	-88.6
					CHANNELS 3  Xrotation Yrotation Zrotation
					JOINT right_foot_ee
					{
						OFFSET	22.5	-16.5	-42.2
						CHANNELS 3  Xrotation Yrotation Zrotation
						End Site
						{
							OFFSET	1	0	0
						}
					}
				}
			}
		}
	}
}
MOTION
Frames: 8
Frame Time: 0.02
3497.04986223 723.146 -1520.93024384 2.03698886306 67.1088256252 -5.37057776575 0.511478 0.888746 3.77142 0.519157 0.64714 3.82023 0.565814 -0.131701 3.87234 0.545216 0.481055 3.84464 -19.385 6.40003 -10.7129 -19.517 17.8836 -7.35976 -0.0 0.0 -0.0 -4.7818 23.8273 -3.76593 -7.59923 -21.7936 66.4975 1.2476 -31.7158 0.35441 -59.1435 -5.17643 5.07372 -0.86222 14.9163 0.752652 -0.0 0.0 -0.0 11.5206 27.2184 -22.1492 -19.8966 45.6935 -50.5877 0.849196 22.8147 -0.171344 26.0923 -0.17051 3.30004 -1.21873 -11.3951 3.03838 0.0 0.0 0.0 31.3458 4.0089 -8.44953 -46.0277 -0.89407 6.82059 -22.4934 8.93011 3.38331 19.6979 -0.0 -0.0 -0.0 0.0 -0.0 2.38966 8.25918 3.71502 -20.6206 -0.287745 -3.13426 32.1364 18.18 4.50127 -7.29467 0.0 0.0 0.0 0.0 0.0 
3498.7771837 723.146 -1523.7071895 1.8769556448 65.0306069647 -5.19552313513 0.511478 0.888746 3.77142 0.519157 0.64714 3.82023 0.565814 -0.131701 3.87234 0.545216 0.481055 3.84464 -19.385 6.40003 -10.7129 -19.517 17.8836 -7.35976 -0.0 0.0 -0.0 -4.7818 23.8273 -3.76593 -7.59923 -21.7936 66.4975 1.2476 -31.7158 0.35441 -59.1435 -5.17643 5.07372 -0.86222 14.9163 0.752652 -0.0 0.0 -0.0 11.5206 27.2184 -22.1492 -19.8966 45.6935 -50.5877 0.849196 22.8147 -0.171344 26.0923 -0.17051 3.30004 -1.21873 -11.3951 3.03838 0.0 0.0 0.0 31.3458 4.0089 -8.44953 -46.0277 -0.89407 6.82059 -22.4934 8.93011 3.38331 19.6979 -0.0 -0.0 -0.0 0.0 -0.0 2.38966 8.25918 3.71502 -20.6206 -0.287745 -3.13426 32.1364 18.18 4.50127 -7.29467 0.0 0.0 0.0 0.0 0.0 
3499.25042308 723.146 -1524.43045729 1.83916440896 64.4813405887 -5.15374224241 0.511478 0.888746 3.77142 0.519157 0.64714 3.82023 0.565814 -0.131701 3.87234 0.545216 0.481055 3.84464 -19.385 6.40003 -10.7129 -19.517 17.8836 -7.35976 -0.0 0.0 -0.0 -4.7818 23.8273 -3.76593 -7.59923 -21.7936 66.4975 1.2476 -31.7158 0.35441 -59.1435 -5.17643 5.07372 -0.86222 14.9163 0.752652 -0.0 0.0 -0.0 11.5206 27.2184 -22.1492 -19.8966 45.6935 -50.5877 0.849196 22.8147 -0.171344 26.0923 -0.17051 3.30004 -1.21873 -11.3951 3.03838 0.0 0.0 0.0 31.3458 4.0089 -8.44953 -46.0277 -0.89407 6.82059 -22.4934 8.93011 3.38331 19.6979 -0.0 -0.0 -0.0 0.0 -0.0 2.38966 8.25918 3.71502 -20.6206 -0.287745 -3.13426 32.1364 18.18 4.50127 -7.29467 0.0 0.0 0.0 0.0 0.0 
3498.95621664 723.146 -1523.98259536 1.86239174319 64.8218645879 -5.17944400814 0.511478 0.888746 3.77142 0.519157 0.64714 3.82023 0.565814 -0.131701 3.87234 0.545216 0.481055 3.84464 -19.385 6.40003 -10.7129 -19.517 17.8836 -7.35976 -0.0 0.0 -0.0 -4.7818 23.8273 -3.76593 -7.59923 -21.7936 66.4975 1.2476 -31.7158 0.35441 -59.1435 -5.17643 5.07372 -0.86222 14.9163 0.752652 -0.0 0.0 -0.0 11.5206 27.2184 -22.1492 -19.8966 45.6935 -50.5877 0.849196 22.8147 -0.171344 26.0923 -0.17051 3.30004 -1.21873 -11.3951 3.03838 0.0 0.0 0.0 31.3458 4.0089 -8.44953 -46.0277 -0.89407 6.82059 -22.4934 8.93011 3.38331 19.6979 -0.0 -0.0 -0.0 0.0 -0.0 2.38966 8.25918 3.71502 -20.6206 -0.287745 -3.13426 32.1364 18.18 4.50127 -7.29467 0.0 0.0 0.0 0.0 0.0 
3490.76228618 724.118 -1518.34816907 2.67113313689 68.0657395053 -5.54990815903 0.466137 0.864688 3.82508 0.474062 0.619724 3.87225 0.519605 -0.172228 3.91768 0.498472 0.448177 3.8958 -19.6604 6.57134 -10.8511 -19.8139 18.236 -7.37761 -0.0 0.0 -0.0 -4.66466 23.6489 -3.64898 -7.97691 -21.2398 66.7782 1.1224 -29.0734 0.291048 -57.7146 -4.99997 5.02436 -0.835436 14.3063 0.655906 -0.0 0.0 -0.0 12.175 27.1542 -23.6448 -19.4106 46.5786 -49.1789 0.857928 23.0249 -0.174745 25.9266 -0.174188 3.2792 -1.36106 -10.157 4.50896 0.0 0.0 0.0 32.9919 1.64442 -7.7285 -47.5164 -1.01281 7.01654 -24.9413 11.6106 3.75624 18.7753 -0.0 -0.0 -0.0 0.0 -0.0 1.99447 7.97568 3.78913 -20.941 -0.283265 -3.18322 33.1428 18.311 4.61395 -8.02823 0.0 0.0 0.0 0.0 0.0 
3476.32559285 721.842 -1513.73107903 4.80309672614 71.1540787979 -7.41417866927 0.422228 0.852079 3.78409 0.429987 0.609742 3.83054 0.474429 -0.176684 3.87468 0.453749 0.437002 3.85404 -19.8656 6.46495 -11.9222 -19.9749 18.5439 -8.40367 -0.0 0.0 -0.0 -4.61354 23.7574 -3.55139 -9.26771 -20.7107 67.064 1.00204 -26.3984 0.235017 -56.5995 -4.86314 4.98279 -0.643325 13.5244 1.52095 -0.0 0.0 -0.0 12.5849 26.9338 -24.6096 -18.2456 47.2626 -47.74 0.910373 24.2737 -0.195784 25.6697 -0.179771 3.24686 -1.53195 -8.94368 6.16934 0.0 0.0 0.0 34.2482 -0.000522936 -7.19434 -47.2906 -0.994472 6.98702 -24.8018 13.599 3.74434 17.8162 -0.0 -0.0 -0.0 0.0 -0.0 0.943021 7.74382 3.9852 -22.0431 -0.265772 -3.35142 32.7915 18.549 4.585 -8.77897 0.0 0.0 0.0 0.0 0.0 
3459.22061013 712.44 -1510.77644435 4.03014357344 73.6810201054 -6.63109739917 0.432341 0.628767 3.76883 0.440158 0.38785 3.80114 0.469177 -0.388891 3.80104 0.449085 0.215841 3.81476 -17.9284 6.48673 -9.58904 -18.0579 17.6847 -6.47218 -0.0 0.0 -0.0 -4.54713 23.2613 -3.58166 -10.837 -20.4376 68.1879 0.783158 -21.2039 0.146594 -53.6857 -4.50957 4.86165 -0.239026 13.046 3.86012 -0.0 0.0 -0.0 12.4045 25.4042 -24.3735 -17.121 45.6501 -46.6019 1.31767 33.1322 -0.39198 21.2466 -0.253064 2.68675 -2.54823 -7.75597 13.4226 0.0 0.0 0.0 33.3838 1.55054 -8.76544 -38.199 -0.356185 5.7445 -24.1857 12.6001 3.64654 13.8739 -0.0 -0.0 -0.0 0.0 -0.0 0.338585 5.33535 4.19733 -21.9157 -0.267961 -3.33199 31.7176 22.5093 4.62386 -10.0283 0.0 0.0 0.0 0.0 0.0 
3448.73201478 709.223 -1510.12956097 2.16281595667 75.4304200549 -4.65100902096 0.588848 0.283228 3.77497 0.596774 0.0426186 3.78532 0.602002 -0.715874 3.71736 0.582743 -0.120242 3.78366 -16.571 6.50693 -8.01999 -16.7013 17.0269 -5.18124 -0.0 0.0 -0.0 -4.47585 22.8158 -3.59057 -11.8157 -20.3315 68.981 0.64086 -17.6128 0.099285 -51.4398 -4.24144 4.75608 0.110356 12.7015 5.92797 -0.0 0.0 -0.0 12.4784 24.2537 -24.666 -15.6567 44.7063 -46.4829 1.72899 40.5763 -0.639209 17.9315 -0.279544 2.2642 -3.28416 -6.75458 18.9469 0.0 0.0 0.0 33.4151 2.51745 -10.1149 -29.7621 0.0531063 4.51604 -23.4066 11.91 3.52647 11.1212 -0.0 -0.0 -0.0 0.0 -0.0 -0.0816725 3.67333 4.55468 -21.1853 -0.279668 -3.22053 31.7523 25.3759 4.76167 -10.7544 0.0 0.0 0.0 0.0 0.0 
